<svg aria-hidden="true" style="position: absolute; width: 0; height: 0; overflow: hidden;" version="1.1" xmlns="http://www.w3.org/2000/svg" xmlns:xlink="http://www.w3.org/1999/xlink">
<defs>
<symbol id="icon-footer" viewBox="0 0 32 32">
<path d="M18.304 8.742c-0.365 0.045-1.408 0.288-1.408 0.326 0 0.026 0.045 0.090 0.102 0.154 0.090 0.102 0.038 0.147-0.762 0.627-0.474 0.282-1.082 0.678-1.35 0.87-0.48 0.346-0.506 0.352-0.922 0.352-0.282 0-0.518-0.045-0.704-0.128-0.256-0.115-0.307-0.115-1.101-0.032-1.011 0.115-1.606 0.198-2.253 0.326-0.474 0.096-0.512 0.115-0.896 0.499-0.435 0.429-1.094 0.806-1.421 0.806h-0.192l0.25-0.262c0.23-0.237 0.243-0.262 0.096-0.218-0.333 0.090-1.069 0.486-1.344 0.723l-0.288 0.256 0.019 0.614c0.019 0.429 0 0.653-0.058 0.717-0.045 0.058-0.051 0.115-0.019 0.147 0.205 0.186 1.805 0.512 2.534 0.518 0.211 0 0.237-0.019 0.256-0.179 0.026-0.243 0.282-0.282 0.371-0.051 0.032 0.090 0.186 0.301 0.333 0.461 0.883 0.96 2.285 0.838 3.046-0.262 0.243-0.352 0.474-0.435 0.512-0.179l0.019 0.147h4.608c4.557 0 4.602 0 4.602-0.128 0-0.090 0.045-0.128 0.147-0.128 0.109 0 0.211 0.090 0.358 0.301 0.563 0.819 1.542 1.107 2.438 0.717 0.352-0.154 0.595-0.384 0.813-0.749 0.147-0.243 0.186-0.269 0.41-0.269 0.16 0 0.269 0.032 0.288 0.090 0.019 0.051 0.083 0.077 0.141 0.064 0.058-0.006 0.57-0.083 1.133-0.16l1.024-0.147 0.32-0.301 0.314-0.301 0.006-0.506c0.006-0.275 0.032-0.646 0.058-0.832l0.051-0.333-0.314-0.339c-0.179-0.186-0.352-0.403-0.39-0.474-0.038-0.077-0.16-0.154-0.282-0.179-0.48-0.096-0.691-0.173-0.691-0.262 0-0.064-0.070-0.096-0.224-0.096s-0.224-0.032-0.224-0.096c0-0.064-0.070-0.096-0.224-0.096-0.186 0-0.224-0.026-0.224-0.134 0-0.122-0.026-0.128-0.211-0.096-0.134 0.026-0.326-0.006-0.557-0.096-1.466-0.557-4.41-1.357-5.76-1.562-0.634-0.102-2.042-0.166-2.432-0.122zM20.512 9.338c0.288 0.026 0.39 0.064 0.403 0.147 0.019 0.102-0.333 1.293-0.422 1.44-0.051 0.070-3.878 0.243-3.987 0.179-0.032-0.026-0.058-0.096-0.058-0.16s-0.064-0.198-0.147-0.294c-0.224-0.256-0.531-0.179-0.954 0.237-0.307 0.301-0.454 0.378-0.525 0.256-0.038-0.058 1.709-1.235 2.17-1.459 0.826-0.41 1.901-0.518 3.52-0.346zM22.432 9.754c0.422 0.122 0.928 0.282 1.12 0.352 0.666 0.25 0.941 0.506 0.666 0.608-0.154 0.058-2.835 0.256-2.88 0.211-0.019-0.019-0.019-0.339 0.006-0.71 0.058-0.806-0.019-0.774 1.088-0.461zM20.877 11.405c0.096 0.32-0.006 0.768-0.307 1.402-0.41 0.851-0.915 1.325-1.606 1.491-0.262 0.064-1.043 0.102-2.72 0.134l-2.342 0.038-0.051-0.563c-0.026-0.307-0.051-0.909-0.051-1.331-0.006-0.614 0.013-0.806 0.102-0.96 0.16-0.269 0.365-0.506 0.41-0.461 0.026 0.019-0.006 0.083-0.064 0.147-0.058 0.058-0.173 0.224-0.25 0.371-0.154 0.288-0.16 0.627-0.058 1.99l0.045 0.64 1.024 0.019c0.563 0.006 1.69-0.006 2.496-0.038 1.446-0.051 1.478-0.051 1.805-0.23 0.493-0.269 0.819-0.634 1.146-1.28 0.371-0.73 0.435-1.19 0.224-1.53-0.166-0.275-0.173-0.352-0.006-0.205 0.070 0.064 0.16 0.23 0.205 0.365zM29.216 11.789c0.045 0.115 0.070 0.23 0.058 0.256-0.019 0.032-0.429 0.051-0.915 0.051-0.646 0-0.947-0.026-1.12-0.096-0.307-0.128-0.294-0.224 0.045-0.23 0.147 0 0.531-0.045 0.845-0.090 0.941-0.134 0.986-0.128 1.088 0.109zM11.264 12.422c0.493 0.115 0.864 0.403 1.088 0.838 0.32 0.646 0.237 1.242-0.25 1.792-0.806 0.922-2.445 0.467-2.694-0.742-0.166-0.8 0.269-1.574 1.037-1.837 0.397-0.134 0.435-0.141 0.819-0.051zM25.152 12.544c0.992 0.506 1.184 1.798 0.384 2.573-0.365 0.352-0.685 0.461-1.254 0.422-0.467-0.032-0.819-0.23-1.114-0.64-0.339-0.467-0.39-1.005-0.154-1.587 0.333-0.794 1.363-1.165 2.138-0.768zM7.162 13.235c0.269 0.198 0.256 0.333-0.038 0.333-0.141 0-0.275 0.026-0.307 0.058-0.038 0.032-0.134 0.070-0.224 0.090-0.134 0.026-0.128 0.026 0.051 0.038 0.16 0.006 0.205 0.032 0.205 0.141s-0.032 0.128-0.237 0.109c-0.192-0.013-0.243-0.045-0.25-0.147 0-0.070-0.032-0.192-0.077-0.269-0.115-0.205-0.096-0.32 0.070-0.435 0.179-0.134 0.576-0.090 0.806 0.083zM6.784 14.176c0 0.141-0.256 0.262-0.326 0.154-0.102-0.166-0.058-0.25 0.134-0.25 0.128 0 0.192 0.032 0.192 0.096z"></path>
<path d="M10.707 12.55c-0.659 0.122-1.037 0.506-1.171 1.197-0.166 0.909 0.506 1.683 1.478 1.677 0.576-0.006 1.19-0.461 1.338-0.992 0.301-1.069-0.576-2.067-1.645-1.882z"></path>
<path d="M24.211 12.55c-0.979 0.186-1.472 1.197-1.018 2.086 0.685 1.357 2.726 0.877 2.726-0.64 0-0.653-0.48-1.306-1.043-1.421-0.115-0.026-0.25-0.051-0.301-0.064-0.051-0.006-0.218 0.006-0.365 0.038z"></path>
<path d="M15.424 9.734c-0.723 0.352-1.51 0.73-1.747 0.838-0.256 0.115-0.41 0.224-0.378 0.256s0.25 0.090 0.48 0.128l0.422 0.070 0.915-0.595c0.506-0.326 1.107-0.71 1.344-0.858 0.384-0.237 0.422-0.282 0.352-0.378s-0.198-0.051-1.389 0.538z"></path>
<path d="M8.64 11.52c-0.051 0.032-0.064 0.064-0.032 0.064 0.038 0 0.109-0.032 0.16-0.064s0.070-0.064 0.032-0.064c-0.032 0-0.109 0.032-0.16 0.064z"></path>
<path d="M8.275 11.712c-0.115 0.070-0.211 0.141-0.211 0.16 0 0.013 0.102-0.032 0.224-0.102 0.122-0.077 0.224-0.147 0.224-0.16 0-0.038-0.019-0.032-0.237 0.102z"></path>
<path d="M12.896 15.232c-0.051 0.102-0.154 0.218-0.224 0.256-0.154 0.083-0.166 0.211-0.032 0.32 0.051 0.045 0.096 0.186 0.096 0.32 0 0.192 0.032 0.25 0.16 0.307 0.090 0.045 0.179 0.077 0.192 0.077 0.019 0 0.032-0.333 0.032-0.736 0-0.762-0.051-0.883-0.224-0.544z"></path>
<path d="M12.454 16.646c-0.198 0.154-0.237 0.358-0.045 0.243 0.064-0.045 0.166-0.058 0.224-0.038 0.090 0.038 0.102 0.211 0.102 1.517v1.478l-0.608-0.038-0.032-0.89-0.032-0.883-0.275 0.326c-0.262 0.307-0.269 0.333-0.179 0.467 0.070 0.096 0.102 0.288 0.102 0.576v0.435h-0.691l-0.026-0.634c-0.019-0.57-0.038-0.653-0.173-0.8-0.346-0.365-0.966-0.122-0.966 0.378v0.224h-0.838c-0.87 0-0.877-0.006-0.653-0.262 0.077-0.090 0.064-0.115-0.070-0.205-0.090-0.058-0.211-0.192-0.269-0.301-0.064-0.102-0.141-0.192-0.166-0.192s-0.051 0.301-0.051 0.672v0.672l1.203-0.013 1.197-0.019 0.032-0.352c0.026-0.275 0.058-0.358 0.154-0.371 0.179-0.038 0.23 0.096 0.23 0.672v0.531h-2.816v0.672c0 0.704 0.051 0.813 0.224 0.48 0.051-0.102 0.173-0.237 0.262-0.294l0.16-0.109-0.134-0.141c-0.070-0.077-0.128-0.154-0.128-0.179s1.51-0.045 3.354-0.045h3.354l0.045 0.262c0.064 0.365 0.25 0.518 0.602 0.493 0.224-0.013 0.307-0.058 0.416-0.198 0.128-0.173 0.134-0.275 0.154-1.587 0.019-1.446-0.006-1.581-0.218-1.229-0.064 0.102-0.179 0.237-0.262 0.307l-0.147 0.134 0.128 0.25c0.109 0.211 0.128 0.378 0.128 0.998 0 0.858-0.019 0.954-0.224 0.954-0.083 0-0.166-0.045-0.186-0.102s-0.038-0.608-0.038-1.229l-0.006-1.133-0.154 0.192c-0.090 0.102-0.224 0.256-0.301 0.333-0.141 0.141-0.141 0.154-0.032 0.333 0.064 0.109 0.109 0.32 0.109 0.512v0.326h-0.576v-0.64c0-0.666-0.051-0.781-0.218-0.454-0.058 0.102-0.173 0.243-0.269 0.307l-0.166 0.122 0.134 0.224c0.23 0.378 0.192 0.442-0.282 0.442h-0.416v-3.014l-0.16-0.154c-0.186-0.192-0.288-0.198-0.506-0.026z"></path>
<path d="M24.954 16.634c-0.134 0.102-0.141 0.141-0.070 0.288 0.083 0.179 0.314 0.224 0.448 0.090 0.115-0.115 0.090-0.358-0.045-0.435-0.16-0.083-0.16-0.083-0.333 0.058z"></path>
<path d="M18.093 16.858c-0.595 0.224-1.062 0.717-1.318 1.408-0.077 0.205-0.128 0.384-0.115 0.397 0.013 0.019 0.102-0.083 0.198-0.224 0.301-0.435 0.896-0.768 1.382-0.768l0.224-0.006-0.262 0.16c-0.627 0.371-0.493 1.062 0.256 1.28 0.397 0.122 0.563 0.122 0.998 0 0.749-0.198 0.698-0.205 0.454 0.051-0.288 0.307-0.826 0.531-1.478 0.621-0.301 0.038-0.608 0.115-0.685 0.166-0.218 0.134-0.186 0.371 0.083 0.666 0.211 0.23 0.218 0.256 0.096 0.256-0.192 0-0.582-0.173-0.768-0.339-0.083-0.077-0.237-0.269-0.346-0.429l-0.186-0.288 0.038 0.288c0.102 0.672 0.544 1.306 1.139 1.638 0.301 0.166 0.397 0.186 0.883 0.179 0.314 0 0.627-0.038 0.736-0.090 0.115-0.051 0.154-0.090 0.096-0.102-0.051-0.006-0.205-0.038-0.346-0.058-0.506-0.083-0.717-0.57-0.39-0.902 0.147-0.147 0.205-0.16 0.499-0.141 0.186 0.019 0.518 0.083 0.742 0.141 0.474 0.134 0.832 0.102 1.158-0.102l0.224-0.141-0.243-0.038c-0.134-0.026-0.32-0.102-0.416-0.173-0.371-0.275-0.333-0.96 0.070-1.254 0.422-0.314 0.858-0.371 1.574-0.205 0.224 0.058 0.422 0.083 0.442 0.070 0.013-0.019-0.115-0.173-0.288-0.346-0.506-0.506-1.126-0.634-2.067-0.429-0.589 0.128-0.8 0.122-0.986-0.051-0.154-0.134-0.192-0.243-0.173-0.538 0.006-0.192 0.275-0.358 0.64-0.41l0.294-0.038-0.32-0.147c-0.403-0.192-1.446-0.25-1.843-0.102z"></path>
<path d="M11.52 17.306c-0.179 0.218 0.070 0.595 0.301 0.448 0.205-0.128 0.25-0.262 0.122-0.403-0.141-0.154-0.314-0.173-0.422-0.045z"></path>
<path d="M24.499 17.376c-0.141 0.307 0.154 0.531 0.429 0.326 0.102-0.077 0.115-0.122 0.064-0.275-0.096-0.256-0.384-0.288-0.493-0.051z"></path>
<path d="M25.357 17.293c-0.102 0.102-0.096 0.339 0.019 0.435 0.122 0.102 0.288 0.064 0.39-0.096 0.166-0.25-0.198-0.55-0.41-0.339z"></path>
<path d="M26.15 17.952c-0.070 0.102-0.198 0.25-0.282 0.326-0.154 0.128-0.16 0.134-0.045 0.307 0.141 0.211 0.192 0.902 0.115 1.542-0.038 0.365-0.077 0.448-0.173 0.467-0.064 0.013-0.141-0.013-0.173-0.064-0.032-0.045-0.058-0.602-0.058-1.235v-1.146l-0.32 0.346c-0.301 0.326-0.314 0.352-0.211 0.461 0.064 0.077 0.115 0.269 0.134 0.499l0.026 0.384h-0.589v-0.64c0-0.352-0.026-0.64-0.058-0.64s-0.102 0.077-0.166 0.173c-0.058 0.102-0.179 0.237-0.262 0.307l-0.154 0.134 0.128 0.25c0.096 0.192 0.128 0.378 0.128 0.787 0 0.48-0.013 0.544-0.16 0.685-0.141 0.147-0.198 0.16-0.813 0.16-0.55 0-0.698-0.019-0.87-0.128l-0.211-0.128-0.154 0.179c-0.077 0.096-0.224 0.218-0.314 0.262-0.090 0.051-0.166 0.115-0.166 0.147 0 0.038 0.538 0.051 1.267 0.038 1.050-0.013 1.286-0.038 1.408-0.128 0.243-0.166 0.339-0.352 0.378-0.723l0.038-0.352h0.269c0.269 0 0.275 0.006 0.314 0.256 0.058 0.358 0.256 0.525 0.608 0.499 0.211-0.013 0.314-0.058 0.403-0.179 0.109-0.147 0.115-0.282 0.102-1.6l-0.019-1.44-0.122 0.192z"></path>
<path d="M7.072 18.349c-0.064 0.102-0.173 0.23-0.243 0.288-0.134 0.102-0.134 0.109-0.019 0.237 0.102 0.109 0.109 0.23 0.090 1.107-0.019 0.896-0.032 1.005-0.173 1.248-0.083 0.147-0.25 0.314-0.365 0.378-0.429 0.23-0.179 0.301 0.275 0.083 0.192-0.096 0.333-0.224 0.454-0.429 0.173-0.301 0.173-0.307 0.192-1.696 0.013-0.851 0-1.389-0.038-1.389-0.032 0-0.115 0.077-0.173 0.173z"></path>
<path d="M28.224 18.336c-0.045 0.051-0.256 0.179-0.474 0.282-0.646 0.307-0.832 0.55-0.909 1.21l-0.045 0.397h1.235v0.211c0 0.39-0.179 0.851-0.41 1.056-0.122 0.102-0.256 0.205-0.307 0.218-0.045 0.019-0.064 0.051-0.045 0.077 0.083 0.090 0.544-0.090 0.736-0.275 0.339-0.333 0.41-0.698 0.41-2.061 0-0.666-0.026-1.21-0.058-1.21s-0.090 0.045-0.134 0.096zM28.032 19.392v0.448h-0.416c-0.23 0-0.416-0.026-0.416-0.058 0-0.243 0.301-0.678 0.544-0.774 0.269-0.115 0.288-0.083 0.288 0.384z"></path>
</symbol>
</defs>
</svg>
