<?xml version="1.0" standalone="no"?>
<!DOCTYPE svg PUBLIC "-//W3C//DTD SVG 20010904//EN"
 "http://www.w3.org/TR/2001/REC-SVG-20010904/DTD/svg10.dtd">
<svg version="1.0" xmlns="http://www.w3.org/2000/svg"
 width="500.000000pt" height="500.000000pt" viewBox="0 0 500.000000 500.000000"
 preserveAspectRatio="xMidYMid meet">

<g transform="translate(0.000000,500.000000) scale(0.100000,-0.100000)"
fill="#000000" stroke="none">
<path d="M2860 3634 c-57 -7 -220 -45 -220 -51 0 -4 7 -14 16 -24 14 -16 6
-23 -119 -98 -74 -44 -169 -106 -211 -136 -75 -54 -79 -55 -144 -55 -44 0 -81
7 -110 20 -40 18 -48 18 -172 5 -158 -18 -251 -31 -352 -51 -74 -15 -80 -18
-140 -78 -68 -67 -171 -126 -222 -126 l-30 0 39 41 c36 37 38 41 15 34 -52
-14 -167 -76 -210 -113 l-45 -40 3 -96 c3 -67 0 -102 -9 -112 -7 -9 -8 -18 -3
-23 32 -29 282 -80 396 -81 33 0 37 3 40 28 4 38 44 44 58 8 5 -14 29 -47 52
-72 138 -150 357 -131 476 41 38 55 74 68 80 28 l3 -23 720 0 c712 0 719 0
719 20 0 14 7 20 23 20 17 0 33 -14 56 -47 88 -128 241 -173 381 -112 55 24
93 60 127 117 23 38 29 42 64 42 25 0 42 -5 45 -14 3 -8 13 -12 22 -10 9 1 89
13 177 25 l160 23 50 47 49 47 1 79 c1 43 5 101 9 130 l8 52 -49 53 c-28 29
-55 63 -61 74 -6 12 -25 24 -44 28 -75 15 -108 27 -108 41 0 10 -11 15 -35 15
-24 0 -35 5 -35 15 0 10 -11 15 -35 15 -29 0 -35 4 -35 21 0 19 -4 20 -33 15
-21 -4 -51 1 -87 15 -229 87 -689 212 -900 244 -99 16 -319 26 -380 19z m345
-93 c45 -4 61 -10 63 -23 3 -16 -52 -202 -66 -225 -8 -11 -606 -38 -623 -28
-5 4 -9 15 -9 25 0 10 -10 31 -23 46 -35 40 -83 28 -149 -37 -48 -47 -71 -59
-82 -40 -6 9 267 193 339 228 129 64 297 81 550 54z m300 -65 c66 -19 145 -44
175 -55 104 -39 147 -79 104 -95 -24 -9 -443 -40 -450 -33 -3 3 -3 53 1 111 9
126 -3 121 170 72z m-243 -258 c15 -50 -1 -120 -48 -219 -64 -133 -143 -207
-251 -233 -41 -10 -163 -16 -425 -21 l-366 -6 -8 88 c-4 48 -8 142 -8 208 -1
96 2 126 16 150 25 42 57 79 64 72 4 -3 -1 -13 -10 -23 -9 -9 -27 -35 -39 -58
-24 -45 -25 -98 -9 -311 l7 -100 160 -3 c88 -1 264 1 390 6 226 8 231 8 282
36 77 42 128 99 179 200 58 114 68 186 35 239 -26 43 -27 55 -1 32 11 -10 25
-36 32 -57z m1303 -60 c7 -18 11 -36 9 -40 -3 -5 -67 -8 -143 -8 -101 0 -148
4 -175 15 -48 20 -46 35 7 36 23 0 83 7 132 14 147 21 154 20 170 -17z m-2805
-99 c77 -18 135 -63 170 -131 50 -101 37 -194 -39 -280 -126 -144 -382 -73
-421 116 -26 125 42 246 162 287 62 21 68 22 128 8z m2170 -19 c155 -79 185
-281 60 -402 -57 -55 -107 -72 -196 -66 -73 5 -128 36 -174 100 -53 73 -61
157 -24 248 52 124 213 182 334 120z m-2811 -108 c42 -31 40 -52 -6 -52 -22 0
-43 -4 -48 -9 -6 -5 -21 -11 -35 -14 -21 -4 -20 -4 8 -6 25 -1 32 -5 32 -22 0
-17 -5 -20 -37 -17 -30 2 -38 7 -39 23 0 11 -5 30 -12 42 -18 32 -15 50 11 68
28 21 90 14 126 -13z m-59 -147 c0 -22 -40 -41 -51 -24 -16 26 -9 39 21 39 20
0 30 -5 30 -15z"/>
<path d="M1673 3039 c-103 -19 -162 -79 -183 -187 -26 -142 79 -263 231 -262
90 1 186 72 209 155 47 167 -90 323 -257 294z"/>
<path d="M3783 3039 c-153 -29 -230 -187 -159 -326 107 -212 426 -137 426 100
0 102 -75 204 -163 222 -18 4 -39 8 -47 10 -8 1 -34 -1 -57 -6z"/>
<path d="M2410 3479 c-113 -55 -236 -114 -273 -131 -40 -18 -64 -35 -59 -40 5
-5 39 -14 75 -20 l66 -11 143 93 c79 51 173 111 210 134 60 37 66 44 55 59
-11 15 -31 8 -217 -84z"/>
<path d="M1350 3200 c-8 -5 -10 -10 -5 -10 6 0 17 5 25 10 8 5 11 10 5 10 -5
0 -17 -5 -25 -10z"/>
<path d="M1293 3170 c-18 -11 -33 -22 -33 -25 0 -2 16 5 35 16 19 12 35 23 35
25 0 6 -3 5 -37 -16z"/>
<path d="M2015 2620 c-8 -16 -24 -34 -35 -40 -24 -13 -26 -33 -5 -50 8 -7 15
-29 15 -50 0 -30 5 -39 25 -48 14 -7 28 -12 30 -12 3 0 5 52 5 115 0 119 -8
138 -35 85z"/>
<path d="M1946 2399 c-31 -24 -37 -56 -7 -38 10 7 26 9 35 6 14 -6 16 -33 16
-237 l0 -231 -47 3 -48 3 -5 139 -5 138 -43 -51 c-41 -48 -42 -52 -28 -73 11
-15 16 -45 16 -90 l0 -68 -54 0 -54 0 -4 99 c-3 89 -6 102 -27 125 -54 57
-151 19 -151 -59 l0 -35 -131 0 c-136 0 -137 1 -102 41 12 14 10 18 -11 32
-14 9 -33 30 -42 47 -10 16 -22 30 -26 30 -4 0 -8 -47 -8 -105 l0 -105 188 2
187 3 5 55 c4 43 9 56 24 58 28 6 36 -15 36 -105 l0 -83 -220 0 -220 0 0 -105
c0 -110 8 -127 35 -75 8 16 27 37 41 46 l25 17 -21 22 c-11 12 -20 24 -20 28
0 4 236 7 524 7 l524 0 7 -41 c10 -57 39 -81 94 -77 35 2 48 9 65 31 20 27 21
43 24 248 3 226 -1 247 -34 192 -10 -16 -28 -37 -41 -48 l-23 -21 20 -39 c17
-33 20 -59 20 -156 0 -134 -3 -149 -35 -149 -13 0 -26 7 -29 16 -3 9 -6 95 -6
192 l-1 177 -24 -30 c-14 -16 -35 -40 -47 -52 -22 -22 -22 -24 -5 -52 10 -17
17 -50 17 -80 l0 -51 -45 0 -45 0 0 100 c0 104 -8 122 -34 71 -9 -16 -27 -38
-42 -48 l-26 -19 21 -35 c36 -59 30 -69 -44 -69 l-65 0 0 235 0 236 -25 24
c-29 30 -45 31 -79 4z"/>
<path d="M3899 2401 c-21 -16 -22 -22 -11 -45 13 -28 49 -35 70 -14 18 18 14
56 -7 68 -25 13 -25 13 -52 -9z"/>
<path d="M2827 2366 c-93 -35 -166 -112 -206 -220 -12 -32 -20 -60 -18 -62 2
-3 16 13 31 35 47 68 140 120 216 120 l35 1 -41 -25 c-98 -58 -77 -166 40
-200 62 -19 88 -19 156 0 117 31 109 32 71 -8 -45 -48 -129 -83 -231 -97 -47
-6 -95 -18 -107 -26 -34 -21 -29 -58 13 -104 33 -36 34 -40 15 -40 -30 0 -91
27 -120 53 -13 12 -37 42 -54 67 l-29 45 6 -45 c16 -105 85 -204 178 -256 47
-26 62 -29 138 -28 49 0 98 6 115 14 18 8 24 14 15 16 -8 1 -32 6 -54 9 -79
13 -112 89 -61 141 23 23 32 25 78 22 29 -3 81 -13 116 -22 74 -21 130 -16
181 16 l35 22 -38 6 c-21 4 -50 16 -65 27 -58 43 -52 150 11 196 66 49 134 58
246 32 35 -9 66 -13 69 -11 2 3 -18 27 -45 54 -79 79 -176 99 -323 67 -92 -20
-125 -19 -154 8 -24 21 -30 38 -27 84 1 30 43 56 100 64 l46 6 -50 23 c-63 30
-226 39 -288 16z"/>
<path d="M1800 2296 c-28 -34 11 -93 47 -70 32 20 39 41 19 63 -22 24 -49 27
-66 7z"/>
<path d="M3828 2285 c-22 -48 24 -83 67 -51 16 12 18 19 10 43 -15 40 -60 45
-77 8z"/>
<path d="M3962 2298 c-16 -16 -15 -53 3 -68 19 -16 45 -10 61 15 26 39 -31 86
-64 53z"/>
<path d="M4086 2195 c-11 -16 -31 -39 -44 -51 -24 -20 -25 -21 -7 -48 22 -33
30 -141 18 -241 -6 -57 -12 -70 -27 -73 -10 -2 -22 2 -27 10 -5 7 -9 94 -9
193 l0 179 -50 -54 c-47 -51 -49 -55 -33 -72 10 -12 18 -42 21 -78 l4 -60 -46
0 -46 0 0 100 c0 55 -4 100 -9 100 -5 0 -16 -12 -26 -27 -9 -16 -28 -37 -41
-48 l-24 -21 20 -39 c15 -30 20 -59 20 -123 0 -75 -2 -85 -25 -107 -22 -23
-31 -25 -127 -25 -86 0 -109 3 -136 20 l-33 20 -24 -28 c-12 -15 -35 -34 -49
-41 -14 -8 -26 -18 -26 -23 0 -6 84 -8 198 -6 164 2 201 6 220 20 38 26 53 55
59 113 l6 55 42 0 c42 0 43 -1 49 -40 9 -56 40 -82 95 -78 33 2 49 9 63 28 17
23 18 44 16 250 l-3 225 -19 -30z"/>
<path d="M1105 2133 c-10 -16 -27 -36 -38 -45 -21 -16 -21 -17 -3 -37 16 -17
17 -36 14 -173 -3 -140 -5 -157 -27 -195 -13 -23 -39 -49 -57 -59 -67 -36 -28
-47 43 -13 30 15 52 35 71 67 27 47 27 48 30 265 2 133 0 217 -6 217 -5 0 -18
-12 -27 -27z"/>
<path d="M4410 2135 c-7 -8 -40 -28 -74 -44 -101 -48 -130 -86 -142 -189 l-7
-62 97 0 96 0 0 -33 c0 -61 -28 -133 -64 -165 -19 -16 -40 -32 -48 -34 -7 -3
-10 -8 -7 -12 13 -14 85 14 115 43 53 52 64 109 64 322 0 104 -4 189 -9 189
-5 0 -14 -7 -21 -15z m-30 -165 l0 -70 -65 0 c-36 0 -65 4 -65 9 0 38 47 106
85 121 42 18 45 13 45 -60z"/>
</g>
</svg>
