<?xml version="1.0" standalone="no"?>
<!DOCTYPE svg PUBLIC "-//W3C//DTD SVG 20010904//EN"
 "http://www.w3.org/TR/2001/REC-SVG-20010904/DTD/svg10.dtd">
<svg version="1.0" xmlns="http://www.w3.org/2000/svg"
 width="900.000000pt" height="740.000000pt" viewBox="0 0 900.000000 740.000000"
 preserveAspectRatio="xMidYMid meet">

<g transform="translate(0.000000,740.000000) scale(0.100000,-0.100000)"
fill="#000000" stroke="none">
<path d="M3950 5347 c0 -2 70 -50 155 -107 85 -57 154 -104 153 -105 -2 -1
-217 30 -478 71 -261 40 -493 75 -515 78 -29 4 32 -31 225 -129 252 -127 263
-134 220 -134 -25 -1 -337 19 -695 44 -357 25 -668 45 -690 45 l-40 0 53 -36
c30 -20 52 -38 49 -40 -4 -5 -204 12 -259 21 -16 2 -28 1 -28 -3 1 -4 57 -45
125 -91 69 -47 125 -88 125 -91 0 -6 -53 -20 -497 -126 -112 -27 -203 -51
-203 -54 0 -3 237 -45 528 -93 290 -49 537 -91 549 -94 79 -18 -54 -23 -620
-24 l-632 0 262 -77 c144 -42 261 -78 259 -80 -3 -3 -480 -109 -731 -162 -49
-10 -225 -49 -390 -85 -165 -36 -344 -75 -398 -87 -53 -11 -96 -23 -94 -25 4
-3 1209 -242 1495 -296 70 -13 107 -23 95 -28 -10 -3 -146 -12 -303 -19 -157
-7 -293 -16 -303 -19 -9 -4 95 -20 233 -36 137 -16 247 -31 244 -34 -3 -3
-305 -126 -672 -273 -546 -219 -659 -267 -625 -268 42 0 853 54 988 66 39 3
68 4 65 1 -5 -5 -174 -58 -483 -152 -49 -15 -87 -29 -84 -31 2 -2 98 -13 213
-25 115 -11 211 -22 213 -24 1 -2 -54 -72 -123 -156 -69 -84 -123 -155 -120
-158 3 -3 166 -42 362 -87 l357 -81 9 -82 9 -81 132 0 132 0 19 -56 c10 -31
25 -59 32 -61 22 -9 227 22 225 33 -1 6 -9 103 -19 215 -18 220 -15 556 6 699
28 185 84 346 151 431 17 21 52 51 77 66 26 15 63 41 83 58 56 50 116 69 196
62 38 -3 78 -9 90 -12 17 -6 25 -1 38 26 27 52 115 139 167 165 26 13 71 29
100 35 29 7 91 34 137 60 406 233 1134 320 1955 234 489 -52 896 -185 1301
-426 127 -76 309 -210 385 -284 l55 -54 125 -11 c346 -30 642 -108 878 -230
l113 -59 -24 41 c-107 182 -388 528 -606 748 -584 587 -1113 869 -2181 1159
-369 100 -975 232 -1360 296 -85 14 -167 28 -182 31 -16 3 -28 4 -28 1z m-357
-1193 c86 -4 156 -9 153 -11 -2 -2 -98 -26 -212 -53 -115 -27 -263 -62 -330
-78 l-121 -29 -71 26 c-40 13 -72 27 -72 30 0 3 69 34 153 68 l152 62 95 -4
c52 -3 166 -8 253 -11z"/>
<path d="M4690 4034 c-761 -51 -1151 -166 -1286 -379 -17 -26 -12 -24 38 17
169 137 387 213 632 220 53 1 100 -2 105 -7 5 -6 50 -152 101 -325 51 -173 94
-317 96 -319 2 -2 24 9 49 24 43 25 46 25 35 6 -10 -19 -8 -21 23 -21 l35 0
-94 325 c-52 179 -94 331 -94 339 0 14 119 36 424 76 127 17 184 19 400 14
138 -3 287 -9 331 -15 230 -27 605 -156 880 -304 193 -103 441 -273 575 -395
l45 -41 -75 6 c-296 23 -1143 46 -1130 32 3 -3 66 -15 140 -27 340 -52 655
-146 907 -270 l161 -80 259 0 c269 0 283 -2 283 -43 0 -36 -60 -48 -264 -55
l-191 -6 208 -41 c114 -23 210 -45 213 -48 8 -8 -57 -35 -146 -59 -61 -17
-104 -21 -230 -21 -177 0 -293 19 -462 77 -57 19 -103 34 -104 33 -1 -1 52
-60 117 -132 97 -105 127 -132 157 -139 20 -5 280 -9 577 -10 471 -1 554 1
650 17 99 15 310 63 327 73 3 2 -18 44 -49 92 -60 95 -137 244 -159 306 -19
53 -10 80 23 71 35 -8 22 8 -31 39 -131 77 -364 124 -676 136 -138 5 -255 15
-328 29 l-113 20 -81 76 c-277 261 -679 488 -1067 605 -272 82 -419 100 -831
104 -179 2 -350 2 -380 0z"/>
<path d="M4601 3949 c-100 -8 -210 -26 -229 -38 -8 -5 19 -100 94 -327 59
-175 110 -323 115 -328 4 -5 94 -2 211 8 656 53 1268 75 1634 58 137 -7 294
-19 349 -27 127 -18 125 -18 95 6 -390 319 -840 548 -1248 635 -109 23 -125
24 -520 23 -224 -1 -449 -5 -501 -10z"/>
<path d="M3928 3839 c-96 -14 -179 -39 -263 -78 -85 -40 -191 -121 -214 -163
-12 -24 -10 -30 21 -79 53 -83 148 -159 148 -119 0 5 21 22 47 37 42 24 59 28
148 31 58 1 123 -3 155 -10 54 -13 57 -16 145 -126 l90 -112 58 0 59 0 -7 28
c-3 15 -38 155 -78 312 l-72 285 -90 1 c-49 1 -116 -2 -147 -7z"/>
<path d="M3250 3580 c-24 -12 -60 -33 -79 -47 -32 -24 -42 -27 -135 -27 -93
-1 -105 -3 -155 -31 -98 -54 -148 -151 -158 -305 l-5 -85 31 43 c108 147 224
94 300 -136 30 -93 68 -269 95 -446 13 -87 27 -160 30 -163 12 -12 94 -15 115
-4 12 7 36 34 52 61 71 116 249 198 404 188 l62 -4 -63 71 c-36 39 -91 106
-124 150 -60 79 -136 212 -127 221 2 3 80 -25 173 -62 390 -152 683 -258 692
-249 3 3 -4 40 -16 82 -11 43 -19 79 -18 80 1 1 52 -15 112 -36 61 -22 136
-44 168 -50 58 -11 59 -10 94 21 20 17 66 45 102 62 64 30 68 31 220 32 144 0
160 2 224 27 71 28 206 106 206 119 0 21 -289 94 -475 119 -106 14 -403 18
-526 6 l-85 -9 -10 -40 c-13 -59 -48 -81 -133 -86 -157 -9 -392 66 -559 179
-83 56 -208 190 -252 270 -34 61 -37 64 -75 67 -24 1 -58 -6 -85 -18z"/>
<path d="M5395 3259 c-132 -9 -258 -18 -280 -19 l-40 -2 45 -10 c602 -126
1082 -355 1440 -683 l82 -75 61 0 62 0 -175 175 c-96 96 -170 175 -165 175 6
0 60 -16 120 -36 147 -47 336 -84 426 -84 l73 0 -60 36 c-32 19 -70 46 -84 60
l-25 25 24 18 23 18 -33 20 c-296 178 -729 329 -1097 383 -75 11 -141 19 -147
19 -5 -1 -118 -10 -250 -20z"/>
<path d="M5521 3019 c-56 -50 -165 -103 -267 -129 -65 -17 -104 -20 -219 -18
-161 3 -173 0 -263 -86 -48 -45 -59 -51 -96 -50 -25 1 -66 14 -105 33 l-63 33
21 -31 c45 -63 69 -195 38 -207 -13 -5 -235 87 -597 246 -289 127 -320 139
-320 130 0 -21 134 -141 225 -202 124 -82 222 -135 366 -198 99 -43 108 -49
82 -54 -36 -8 -218 8 -386 35 -71 12 -131 19 -133 16 -7 -7 140 -67 231 -94
153 -45 330 -78 532 -98 59 -6 63 -5 67 17 60 273 96 342 202 394 66 32 171
43 230 24 93 -31 239 -156 329 -283 33 -47 51 -61 107 -86 144 -65 423 -132
831 -201 126 -21 231 -41 234 -43 2 -3 -29 -11 -69 -18 -53 -10 -168 -14 -427
-13 -194 1 -347 -2 -340 -7 67 -37 909 -50 1129 -17 201 31 629 49 1449 64
374 7 375 7 398 30 55 55 6 227 -105 364 -17 21 -17 20 -14 -28 2 -28 -1 -59
-7 -71 -16 -29 -66 -27 -124 3 -43 23 -48 24 -93 10 -25 -7 -85 -20 -133 -28
-206 -35 -315 -40 -966 -42 -486 -1 -658 -5 -680 -14 -18 -7 -83 -13 -160 -13
-122 -1 -137 1 -255 36 -69 20 -183 59 -255 85 -148 54 -193 88 -238 184 -32
66 -77 219 -77 259 0 32 10 40 60 49 l35 7 -55 26 c-30 15 -59 27 -65 26 -5 0
-30 -18 -54 -40z"/>
<path d="M2789 2931 c-54 -56 -82 -121 -111 -261 -26 -124 -21 -351 11 -478
70 -280 225 -376 339 -210 120 176 137 571 35 826 -18 45 -44 84 -78 119 -48
50 -54 53 -100 53 -45 0 -52 -4 -96 -49z m178 -120 c76 -47 124 -196 124 -386
0 -133 -15 -207 -59 -289 -82 -154 -213 -72 -258 162 -39 204 10 458 100 513
39 24 53 24 93 0z"/>
<path d="M4899 2680 c-19 -10 -54 -39 -76 -63 -240 -261 -202 -965 67 -1261
173 -189 380 -122 481 156 53 145 72 351 49 536 -37 289 -171 551 -321 628
-61 30 -147 32 -200 4z m218 -211 c107 -66 191 -246 215 -459 38 -345 -110
-615 -295 -536 -78 33 -177 182 -212 320 -25 101 -38 226 -31 313 24 295 168
457 323 362z"/>
<path d="M3500 2496 c-131 -38 -163 -97 -100 -184 36 -50 50 -57 120 -66 120
-15 387 -120 620 -244 122 -65 320 -181 320 -187 0 -3 -24 5 -52 16 -403 162
-718 238 -1008 244 -130 3 -155 2 -120 -6 311 -72 990 -257 1334 -364 45 -14
48 -14 40 3 -34 79 -46 165 -51 365 l-5 207 -52 -7 c-28 -5 -100 -8 -161 -7
-164 1 -238 24 -440 139 -151 85 -336 123 -445 91z"/>
<path d="M5528 2097 c8 -9 35 -29 60 -46 139 -88 428 -160 777 -191 207 -19
207 -19 50 -51 -264 -54 -264 -54 3 -54 190 0 255 -4 327 -18 158 -32 242 -87
217 -142 -29 -64 -141 -95 -367 -103 -220 -7 -168 -18 157 -31 391 -17 1120
11 1539 59 294 34 444 78 444 130 0 18 -7 27 -30 34 -87 27 -115 45 -115 70 0
30 40 80 92 112 22 14 38 32 38 43 0 24 -61 143 -75 148 -6 2 -16 -17 -23 -41
-15 -56 -101 -151 -171 -189 -195 -107 -466 -135 -1033 -107 -311 15 -399 41
-496 145 l-59 62 -285 12 c-510 20 -820 70 -1043 166 -18 8 -18 7 -7 -8z"/>
<path d="M5548 1926 c4 -22 7 -111 6 -196 0 -119 -4 -165 -17 -197 l-16 -43
379 0 c373 0 380 0 380 20 0 24 -12 22 185 24 143 1 165 4 208 23 40 19 48 27
45 45 -4 30 -71 63 -164 83 -94 20 -290 19 -372 -1 l-64 -16 -29 28 c-16 15
-29 30 -29 34 0 3 33 26 73 50 l72 45 -35 2 c-267 19 -459 56 -561 107 l-69
34 8 -42z"/>
</g>
</svg>
