<?xml version="1.0" encoding="UTF-8"?>
<svg width="75px" height="73px" viewBox="0 0 75 73" version="1.1" xmlns="http://www.w3.org/2000/svg" xmlns:xlink="http://www.w3.org/1999/xlink">
    <!-- Generator: Sketch 51.3 (57544) - http://www.bohemiancoding.com/sketch -->
    <title>Logo</title>
    <desc>Created with Sketch.</desc>
    <defs></defs>
    <g id="Symbols" stroke="none" stroke-width="1" fill="none" fill-rule="evenodd">
        <g id="Brand-/-Logo-/-White">
            <g id="Logo">
                <polygon id="Fill-1" fill="#FFFFFF" points="17.5701396 42.080823 17.5701396 49.388618 15.9260406 49.388618 15.9260406 44.2524368 13.7270558 47.9270209 11.5174112 44.2524368 11.5174112 49.388618 9.88378173 49.388618 9.88378173 42.080823 12.0003426 42.080823 13.7270558 45.0554954 15.4118909 42.080823"></polygon>
                <polygon id="Fill-2" fill="#FFFFFF" points="18.9580584 49.3886752 20.5920685 49.3886752 20.5920685 42.0808802 18.9580584 42.0808802"></polygon>
                <polygon id="Fill-3" fill="#FFFFFF" points="23.274099 43.6040413 21.3014467 43.6040413 21.3014467 42.0808611 26.891231 42.0808611 26.891231 43.6040413 24.9185787 43.6040413 24.9185787 49.3886561 23.274099 49.3886561"></polygon>
                <path d="M27.4979886,49.2959002 L27.4979886,47.7725293 C27.8370114,47.8346844 28.6595368,47.9784418 29.6663261,47.9784418 C30.5090292,47.9784418 30.9302855,47.8651899 30.9302855,47.4018869 C30.9302855,46.8667052 30.570514,46.7946358 29.3889784,46.2493491 C28.2378997,45.724463 27.3849175,45.26116 27.3849175,44.0258759 C27.3849175,42.5028863 28.3100444,41.9778095 30.1387881,41.9778095 C31.0741942,41.9778095 31.7524302,42.0603652 32.1734962,42.1116526 L32.1734962,43.6346422 C31.7627094,43.593841 31.012519,43.4910755 30.1800952,43.4910755 C29.1936739,43.4910755 28.9981789,43.593841 28.9981789,43.9953703 C28.9981789,44.4068139 29.5326967,44.612917 30.334283,44.9730732 C31.5367576,45.5185505 32.5229886,45.9713673 32.5229886,47.3608951 C32.5229886,48.8121966 31.6188008,49.4913264 29.6663261,49.4913264 C28.8959581,49.4913264 28.1762246,49.4089614 27.4979886,49.2959002" id="Fill-4" fill="#FFFFFF"></path>
                <path d="M33.4997589,46.9186218 L33.4997589,42.080823 L35.133769,42.080823 L35.133769,46.8564667 C35.133769,47.6900309 35.6271701,47.978499 36.4078173,47.978499 C37.1890355,47.978499 37.692335,47.6900309 37.692335,46.8564667 L37.692335,42.080823 L39.3263452,42.080823 L39.3263452,46.9186218 C39.3263452,48.6885156 38.165368,49.4913836 36.4078173,49.4913836 C34.6504569,49.4913836 33.4997589,48.6885156 33.4997589,46.9186218" id="Fill-6" fill="#FFFFFF"></path>
                <path d="M43.7867513,48.0093286 C44.4444289,48.0093286 44.7113071,47.7725293 44.7113071,47.134582 C44.7113071,46.5683228 44.4646066,46.3317141 43.8581345,46.3317141 L42.3583249,46.3317141 L42.3583249,48.0093286 L43.7867513,48.0093286 Z M43.6736802,45.0346563 C44.3309772,45.0346563 44.5679695,44.6849864 44.5679695,44.2010921 C44.5679695,43.6142416 44.2797716,43.4601886 43.6736802,43.4601886 L42.3583249,43.4601886 L42.3583249,45.0346563 L43.6736802,45.0346563 Z M40.7243147,42.0807658 L43.9097208,42.0807658 C45.4000127,42.0807658 46.2223477,42.6262431 46.2223477,43.9641021 C46.2223477,45.0245513 45.6158756,45.3534392 45.0607995,45.5702193 C45.7184772,45.7654548 46.4071827,46.1259923 46.4071827,47.3507901 C46.4071827,48.6266847 45.636434,49.3885608 44.0231726,49.3885608 L40.7243147,49.3885608 L40.7243147,42.0807658 Z" id="Fill-8" fill="#FFFFFF"></path>
                <polygon id="Fill-10" fill="#FFFFFF" points="47.3942893 49.3886752 49.0282995 49.3886752 49.0282995 42.0808802 47.3942893 42.0808802"></polygon>
                <path d="M50.2201713,49.2959002 L50.2201713,47.7725293 C50.5591942,47.8346844 51.3817195,47.9784418 52.3885089,47.9784418 C53.2308312,47.9784418 53.6520876,47.8651899 53.6520876,47.4018869 C53.6520876,46.8667052 53.2926967,46.7946358 52.1111612,46.2493491 C50.9600825,45.724463 50.1067195,45.26116 50.1067195,44.0258759 C50.1067195,42.5028863 51.0322272,41.9778095 52.8609708,41.9778095 C53.7963769,41.9778095 54.4746129,42.0603652 54.8956789,42.1116526 L54.8956789,43.6346422 C54.4845114,43.593841 53.7347018,43.4910755 52.9022779,43.4910755 C51.9154759,43.4910755 51.719981,43.593841 51.719981,43.9953703 C51.719981,44.4068139 52.2548794,44.612917 53.0564657,44.9730732 C54.2589404,45.5185505 55.2451713,45.9713673 55.2451713,47.3608951 C55.2451713,48.8121966 54.3406028,49.4913264 52.3885089,49.4913264 C51.6177602,49.4913264 50.8980266,49.4089614 50.2201713,49.2959002" id="Fill-12" fill="#FFFFFF"></path>
                <polygon id="Fill-13" fill="#FFFFFF" points="61.9764594 42.080823 61.9764594 49.388618 60.3428299 49.388618 60.3428299 46.4858243 57.752665 46.4858243 57.752665 49.388618 56.1190355 49.388618 56.1190355 42.080823 57.752665 42.080823 57.752665 44.9626441 60.3428299 44.9626441 60.3428299 42.080823"></polygon>
                <polygon id="Fill-14" fill="#FFFFFF" points="63.3131345 49.3886752 64.9471447 49.3886752 64.9471447 42.0808802 63.3131345 42.0808802"></polygon>
                <polygon id="Fill-15" fill="#FFFFFF" points="25.2315609 51.915793 25.2315609 59.2235881 23.5870812 59.2235881 23.5870812 54.0875975 21.3880964 57.7619909 19.1784518 54.0875975 19.1784518 59.2235881 17.5448223 59.2235881 17.5448223 51.915793 19.6613832 51.915793 21.3880964 54.8900841 23.0733122 51.915793"></polygon>
                <path d="M30.9455711,55.5696143 C30.9455711,54.0769396 30.6885914,53.3259311 29.4967766,53.3259311 C28.3043909,53.3259311 28.0477919,54.0769396 28.0477919,55.5696143 C28.0477919,57.0723939 28.3043909,57.833698 29.4967766,57.833698 C30.6885914,57.833698 30.9455711,57.0723939 30.9455711,55.5696143 M26.3517259,55.5696143 C26.3517259,52.955098 27.3488071,51.8128559 29.4967766,51.8128559 C31.6445558,51.8128559 32.6412563,52.955098 32.6412563,55.5696143 C32.6412563,58.1839399 31.6445558,59.3263727 29.4967766,59.3263727 C27.3488071,59.3263727 26.3517259,58.1839399 26.3517259,55.5696143" id="Fill-16" fill="#FFFFFF"></path>
                <polygon id="Fill-17" fill="#FFFFFF" points="34.8820622 53.4390305 32.9086485 53.4390305 32.9086485 51.9158502 38.4991942 51.9158502 38.4991942 53.4390305 36.5261612 53.4390305 36.5261612 59.2236453 34.8820622 59.2236453"></polygon>
                <path d="M43.3602982,55.5696143 C43.3602982,54.0769396 43.1033185,53.3259311 41.9111231,53.3259311 C40.7187373,53.3259311 40.4621383,54.0769396 40.4621383,55.5696143 C40.4621383,57.0723939 40.7187373,57.833698 41.9111231,57.833698 C43.1033185,57.833698 43.3602982,57.0723939 43.3602982,55.5696143 M38.7668338,55.5696143 C38.7668338,52.955098 39.7633439,51.8128559 41.9111231,51.8128559 C44.0589023,51.8128559 45.0556028,52.955098 45.0556028,55.5696143 C45.0556028,58.1839399 44.0589023,59.3263727 41.9111231,59.3263727 C39.7633439,59.3263727 38.7668338,58.1839399 38.7668338,55.5696143" id="Fill-18" fill="#FFFFFF"></path>
                <path d="M49.0434518,55.1886762 C49.7829822,55.1886762 50.0093147,54.8184151 50.0093147,54.2624515 C50.0093147,53.6961922 49.7829822,53.3259311 49.0434518,53.3259311 L47.8206091,53.3259311 L47.8206091,55.1886762 L49.0434518,55.1886762 Z M46.186599,51.9158121 L49.1460533,51.9158121 C50.7082995,51.9158121 51.705,52.5022813 51.705,54.2624515 C51.705,55.394398 51.1400254,56.1257686 50.205,56.351891 L52.0029061,59.2236071 L50.0915482,59.2236071 L48.5500508,56.6089002 L47.8206091,56.6089002 L47.8206091,59.2236071 L46.186599,59.2236071 L46.186599,51.9158121 Z" id="Fill-19" fill="#FFFFFF"></path>
                <path d="M52.6817703,59.1308893 L52.6817703,57.6075185 C53.0207931,57.6692922 53.8429378,57.8134309 54.8501079,57.8134309 C55.6924302,57.8134309 56.1136865,57.6999884 56.1136865,57.236876 C56.1136865,56.7016943 55.7542957,56.6298156 54.5727602,56.0843382 C53.4216815,55.5592615 52.5683185,55.0959584 52.5683185,53.860865 C52.5683185,52.3376848 53.4934454,51.8127987 55.3225698,51.8127987 C56.2579759,51.8127987 56.9362119,51.8951637 57.3572779,51.9462605 L57.3572779,53.469822 C56.9461104,53.4286395 56.1963008,53.3260646 55.3638769,53.3260646 C54.3770749,53.3260646 54.1819607,53.4286395 54.1819607,53.8299781 C54.1819607,54.2416124 54.7162881,54.4479062 55.517684,54.808253 C56.7201586,55.353349 57.7063896,55.8063564 57.7063896,57.1960749 C57.7063896,58.6468044 56.8022018,59.3261248 54.8501079,59.3261248 C54.0793591,59.3261248 53.3600063,59.2439505 52.6817703,59.1308893" id="Fill-20" fill="#FFFFFF"></path>
                <polygon id="Fill-21" fill="#ED0000" points="30.3477411 12.3151856 37.3370178 24.4398069 44.3259137 12.3151856 37.3370178 0.190564354"></polygon>
                <polygon id="Fill-22" fill="#ED0000" points="51.3147145 24.4397688 37.3365419 24.4401501 44.3258185 36.5647714 58.3039911 36.5647714"></polygon>
                <polygon id="Fill-23" fill="#ED0000" points="23.3585025 24.4397688 37.3366751 24.4401501 30.3477792 36.5647714 16.3696066 36.5647714"></polygon>
                <path d="M0,70.3770271 L2.26008883,70.3770271 C3.81148477,70.3770271 4.78229695,69.4839771 4.78229695,67.5476373 C4.78229695,65.5470453 3.81928934,64.7184383 2.29168782,64.7184383 L0,64.7184383 L0,70.3770271 Z M1.00279188,69.4363122 L1.00279188,65.6583905 L2.30767766,65.6583905 C3.2625,65.6583905 3.73972081,66.2248405 3.73972081,67.5238049 C3.73972081,68.830777 3.24651015,69.4363122 2.27607868,69.4363122 L1.00279188,69.4363122 Z M5.65755076,70.3770271 L6.65196701,70.3770271 L6.65196701,67.4519262 C6.98623096,67.356215 7.39225888,67.2605039 8.17195431,67.2605039 L8.17195431,66.3922397 C7.3840736,66.3922397 6.92265228,66.5994867 6.58020305,66.7426722 L6.58020305,66.4717447 L5.65755076,66.4717447 L5.65755076,70.3770271 Z M9.41326142,65.9058668 L10.1133883,65.1962315 L9.41326142,64.4789697 L8.72074873,65.1962315 L9.41326142,65.9058668 Z M8.91986041,70.3770271 L9.91446701,70.3770271 L9.91446701,66.4717447 L8.91986041,66.4717447 L8.91986041,70.3770271 Z M12.221764,70.3770271 L13.176967,70.3770271 C13.630203,69.6753994 14.6012056,68.6875916 14.6725888,66.4717447 L13.6779822,66.4717447 C13.5986041,68.0894922 13.0416244,68.966336 12.6991751,69.4601446 C12.3571066,68.966336 11.8001269,68.0894922 11.7205584,66.4717447 L10.7261421,66.4717447 C10.7975254,68.6875916 11.7685279,69.6753994 12.221764,70.3770271 Z M17.3859137,70.4563415 C18.1340102,70.4563415 18.5474619,70.3844628 18.7863579,70.3211638 L18.7863579,69.4999925 C18.5236675,69.5640542 18.0626269,69.6513763 17.4494924,69.6513763 C16.7333756,69.6513763 16.2641497,69.4363122 16.2239848,68.7432642 L19.0090736,68.7432642 C19.0168782,68.6473624 19.0168782,68.4719555 19.0168782,68.3365871 C19.0168782,67.0854783 18.611231,66.3922397 17.2111675,66.3922397 C15.8583122,66.3922397 15.2295685,67.0690815 15.2295685,68.4084658 C15.2295685,69.7789276 16.0014594,70.4563415 17.3859137,70.4563415 Z M16.2239848,68.0973092 C16.2641497,67.4919647 16.4868655,67.1571663 17.1788071,67.1571663 C17.9908629,67.1571663 18.0462563,67.5398203 18.0544416,68.0973092 L16.2239848,68.0973092 Z M22.5020939,72.3694207 L24.1572335,70.0740688 C24.3479695,69.8109584 25.4623096,68.4164735 25.4623096,66.4717447 L24.4673223,66.4717447 C24.4673223,68.0099871 23.7036168,69.141743 23.4651015,69.4839771 C23.1866117,69.085689 22.4069162,67.985964 22.4069162,66.4717447 L21.4119289,66.4717447 C21.4755076,68.5278188 22.4069162,69.5556651 22.8839467,70.2572928 L21.7859772,71.8113599 L22.5020939,72.3694207 Z M28.0480964,70.4563415 C29.3927665,70.4563415 30.1088832,69.7470875 30.1088832,68.4244812 C30.1088832,67.0772799 29.3927665,66.3922397 28.0480964,66.3922397 C26.7110406,66.3922397 25.9869289,67.0772799 25.9869289,68.4244812 C25.9869289,69.7470875 26.7110406,70.4563415 28.0480964,70.4563415 Z M28.0480964,69.5878866 C27.2762056,69.5878866 27.0137056,69.1812095 27.0137056,68.4164735 C27.0137056,67.6269518 27.2762056,67.2444884 28.0480964,67.2444884 C28.819797,67.2444884 29.0904822,67.6269518 29.0904822,68.4164735 C29.0904822,69.1812095 28.819797,69.5878866 28.0480964,69.5878866 Z M34.7000635,66.4717447 L33.7054569,66.4717447 L33.7054569,69.3964643 C33.3715736,69.4921755 32.965736,69.5878866 32.5675127,69.5878866 C32.2332487,69.5878866 31.9071701,69.4443199 31.9071701,68.9423129 L31.9071701,66.4717447 L30.9127538,66.4717447 L30.9127538,68.9901685 C30.9127538,70.0262132 31.517132,70.4563415 32.1856599,70.4563415 C32.9731599,70.4563415 33.4349619,70.2494757 33.7772208,70.1057183 L33.7772208,70.3770271 L34.7000635,70.3770271 L34.7000635,66.4717447 Z M35.7824239,70.3770271 L36.7768401,70.3770271 L36.7768401,67.4519262 C37.1111041,67.356215 37.517132,67.2605039 38.2968274,67.2605039 L38.2968274,66.3922397 C37.5089467,66.3922397 37.0475254,66.5994867 36.7054569,66.7426722 L36.7054569,66.4717447 L35.7824239,66.4717447 L35.7824239,70.3770271 Z M43.6115482,64.853616 L43.5323604,64.7184383 L42.0761421,64.7184383 L42.0125635,64.8456083 C41.4317893,66.0172121 40.4451777,67.3962536 40.4451777,69.6994225 L40.4451777,70.3690193 L41.463769,70.3690193 L41.463769,69.8027601 C41.463769,69.4839771 41.4793782,69.1974156 41.5113579,68.9261069 L44.1770939,68.9261069 C44.2086929,69.1974156 44.2246827,69.4921755 44.2246827,69.8109584 L44.2246827,70.3770271 L45.242703,70.3770271 L45.242703,69.7549045 C45.242703,67.4519262 44.2566624,65.9693565 43.6115482,64.853616 Z M41.6545051,68.0498349 C41.9248096,66.9258961 42.4267766,66.2248405 42.816434,65.4196846 C43.2142766,66.2404745 43.730901,66.9497286 44.0175761,68.0498349 L41.6545051,68.0498349 Z M46.205901,70.3770271 L47.2005076,70.3770271 L47.2005076,67.4599339 C47.4314086,67.3482073 47.9720178,67.2683209 48.2984772,67.2683209 C48.6649112,67.2683209 48.9188452,67.4439185 48.9188452,67.9381084 L48.9188452,70.3770271 L49.9138325,70.3770271 L49.9138325,67.7945416 C49.9138325,67.6748073 49.9056472,67.5636528 49.8818528,67.4599339 C50.096764,67.3401996 50.6541244,67.2605039 50.9878173,67.2683209 C51.3462563,67.2769006 51.6165609,67.4439185 51.6165609,67.9381084 L51.6165609,70.3770271 L52.6037437,70.3770271 L52.6037437,67.8025493 C52.6037437,66.7905277 52.0144036,66.3922397 51.2744924,66.3922397 C50.7414975,66.3922397 49.9614213,66.5514405 49.5877538,66.7981541 C49.3650381,66.5194097 48.9828046,66.3922397 48.5853426,66.3922397 C48.0285533,66.3922397 47.3358503,66.6153115 47.1295051,66.7426722 L47.1295051,66.4717447 L46.205901,66.4717447 L46.205901,70.3770271 Z M56.0084391,66.3922397 C55.4040609,66.3922397 54.9586294,66.575273 54.6957487,66.6709841 L54.6957487,64.5586655 L53.7011421,64.5586655 L53.7011421,66.6788012 L53.7089467,70.3770271 L54.6957487,70.3770271 L54.6957487,70.113726 C54.9426396,70.2254526 55.3003173,70.4563415 56.0084391,70.4563415 C57.0915609,70.4563415 57.7359137,69.6357422 57.7359137,68.4244812 C57.7359137,67.2126483 57.0915609,66.3922397 56.0084391,66.3922397 Z M55.7861041,69.5796883 C55.3003173,69.5796883 54.9746193,69.468343 54.703934,69.404472 L54.703934,67.4279031 C54.9828046,67.356215 55.3003173,67.2528775 55.7861041,67.2528775 C56.4780457,67.2528775 56.7409264,67.7068382 56.7409264,68.4244812 C56.7409264,69.141743 56.4620558,69.5796883 55.7861041,69.5796883 Z M59.1277919,65.9058668 L59.8282995,65.1962315 L59.1277919,64.4789697 L58.4358503,65.1962315 L59.1277919,65.9058668 Z M58.6347716,70.3770271 L59.6293782,70.3770271 L59.6293782,66.4717447 L58.6347716,66.4717447 L58.6347716,70.3770271 Z M62.613769,70.4563415 C62.9234772,70.4563415 63.2579315,70.4248826 63.4408629,70.3930425 L63.4408629,69.4921755 C63.2817259,69.5161986 63.0350254,69.5318327 62.8119289,69.5318327 C62.3029188,69.5318327 62.0642132,69.4523276 62.0642132,68.9739624 L62.0642132,67.292344 L63.3215102,67.292344 L63.3215102,66.4717447 L62.0642132,66.4717447 L62.0642132,65.3958521 L61.0774112,65.3958521 L61.0774112,66.4717447 L60.3614848,66.4717447 L60.3614848,67.292344 L61.0774112,67.292344 L61.0774112,69.2052326 C61.0774112,70.1297414 61.6102157,70.4563415 62.613769,70.4563415 Z M64.7537437,65.9058668 L65.4534898,65.1962315 L64.7537437,64.4789697 L64.0614213,65.1962315 L64.7537437,65.9058668 Z M64.2603426,70.3770271 L65.2553299,70.3770271 L65.2553299,66.4717447 L64.2603426,66.4717447 L64.2603426,70.3770271 Z M68.206599,70.4563415 C69.5516497,70.4563415 70.2677665,69.7470875 70.2677665,68.4244812 C70.2677665,67.0772799 69.5516497,66.3922397 68.206599,66.3922397 C66.8703046,66.3922397 66.1456218,67.0772799 66.1456218,68.4244812 C66.1456218,69.7470875 66.8703046,70.4563415 68.206599,70.4563415 Z M68.206599,69.5878866 C67.4350888,69.5878866 67.1725888,69.1812095 67.1725888,68.4164735 C67.1725888,67.6269518 67.4350888,67.2444884 68.206599,67.2444884 C68.9786802,67.2444884 69.2489848,67.6269518 69.2489848,68.4164735 C69.2489848,69.1812095 68.9786802,69.5878866 68.206599,69.5878866 Z M71.111231,70.3770271 L72.1058376,70.3770271 L72.1058376,67.4519262 C72.4401015,67.356215 72.8457487,67.2605039 73.2437817,67.2605039 C73.5780457,67.2605039 73.9041244,67.4040706 73.9041244,67.9062682 L73.9041244,70.3770271 L74.898731,70.3770271 L74.898731,67.8584126 C74.898731,66.8221772 74.2941624,66.3922397 73.6260152,66.3922397 C72.8375635,66.3922397 72.3765228,66.5994867 72.0340736,66.7426722 L72.0340736,66.4717447 L71.111231,66.4717447 L71.111231,70.3770271 Z" id="Fill-24" fill="#FFFFFF"></path>
            </g>
        </g>
    </g>
</svg>