<?xml version="1.0" standalone="no"?>
<!DOCTYPE svg PUBLIC "-//W3C//DTD SVG 20010904//EN"
 "http://www.w3.org/TR/2001/REC-SVG-20010904/DTD/svg10.dtd">
<svg version="1.0" xmlns="http://www.w3.org/2000/svg"
 width="500.000000pt" height="500.000000pt" viewBox="0 0 500.000000 500.000000"
 preserveAspectRatio="xMidYMid meet">

<g transform="translate(0.000000,500.000000) scale(0.100000,-0.100000)"
fill="#000000" stroke="none">
<path d="M2805 3626 c-88 -15 -165 -34 -165 -42 0 -2 6 -14 13 -25 9 -16 9
-23 1 -26 -27 -9 -297 -179 -351 -220 l-58 -45 -75 4 c-49 3 -87 11 -107 23
-30 17 -36 17 -209 -4 -242 -29 -404 -60 -404 -76 0 -39 -177 -157 -255 -170
l-40 -6 58 56 c56 54 158 114 194 116 11 0 13 3 5 6 -18 7 -89 -23 -142 -61
-25 -17 -67 -40 -95 -50 -70 -26 -132 -62 -182 -109 l-43 -39 6 -98 c5 -68 3
-99 -5 -104 -19 -12 -12 -22 27 -39 57 -25 146 -44 268 -58 113 -12 146 -9
143 13 -6 50 29 52 55 3 46 -84 142 -148 242 -161 105 -13 216 43 282 141 23
34 41 50 55 50 38 0 31 -33 -19 -91 -47 -56 -47 -56 -31 -84 10 -15 17 -42 17
-58 0 -24 7 -34 32 -46 17 -9 32 -16 32 -16 1 0 1 57 1 127 l0 128 718 -4 717
-3 0 21 c0 15 6 21 23 21 17 0 32 -13 55 -49 60 -92 138 -134 252 -135 115 0
202 47 256 140 23 40 30 44 64 44 22 0 40 -5 43 -13 4 -11 35 -10 172 9 93 13
175 26 184 29 9 3 37 25 61 50 l44 45 1 82 c1 46 5 104 9 130 8 46 8 47 -42
100 -27 29 -54 62 -60 73 -7 14 -32 26 -81 39 -45 12 -71 24 -71 32 0 9 -12
14 -35 14 -29 0 -35 4 -35 20 0 18 -4 20 -35 14 -31 -5 -35 -4 -35 15 0 18 -6
21 -38 21 -21 0 -114 25 -207 55 -296 96 -565 167 -765 201 -126 21 -349 26
-445 10z m394 -86 c35 -5 66 -11 68 -14 3 -3 -11 -59 -32 -125 l-38 -119 -246
-6 c-135 -4 -274 -9 -309 -12 -54 -5 -63 -3 -68 13 -19 59 -29 74 -50 79 -39
10 -73 -4 -124 -52 -33 -30 -56 -44 -70 -42 -16 2 14 27 117 95 164 108 264
160 347 178 71 16 312 19 405 5z m282 -59 c189 -53 319 -107 319 -131 0 -5 -8
-14 -18 -19 -19 -10 -442 -45 -449 -37 -3 3 -2 52 2 110 6 90 10 106 24 106
10 0 64 -13 122 -29z m-219 -283 c12 -129 -115 -349 -237 -408 -64 -31 -135
-38 -397 -39 -128 -1 -283 -4 -344 -7 l-111 -7 -6 75 c-18 208 -20 295 -7 334
13 41 60 113 73 114 4 0 -6 -19 -23 -42 -49 -67 -54 -101 -39 -290 l12 -169
236 2 c130 1 306 5 391 8 146 6 158 8 208 35 78 43 128 100 179 203 57 114 67
183 34 238 -28 47 -26 57 3 21 14 -16 26 -46 28 -68z m1296 -33 c25 -54 23
-55 -123 -55 -101 0 -145 4 -175 16 -23 9 -38 19 -35 23 6 6 238 37 296 40 19
1 29 -6 37 -24z m-2743 -127 c135 -67 180 -211 107 -341 -53 -95 -153 -141
-255 -118 -143 32 -222 150 -193 289 33 159 198 241 341 170z m2115 2 c122
-63 170 -219 104 -340 -103 -190 -376 -165 -450 42 -36 101 21 243 118 294 70
37 161 38 228 4z m-2835 -94 c29 -12 55 -41 55 -60 0 -3 -20 -6 -45 -6 -25 0
-45 -4 -45 -9 0 -5 -10 -12 -22 -14 -19 -4 -18 -5 5 -6 42 -2 33 -35 -11 -39
-30 -3 -34 1 -32 33 1 3 -7 18 -16 34 -20 34 -14 58 18 71 33 13 54 12 93 -4z
m-35 -154 c0 -12 -22 -32 -36 -32 -6 0 -14 9 -17 20 -4 17 0 20 24 20 16 0 29
-4 29 -8z m1943 -119 c-24 -2 -62 -2 -85 0 -24 2 -5 4 42 4 47 0 66 -2 43 -4z"/>
<path d="M1643 3036 c-87 -28 -135 -83 -154 -178 -37 -186 156 -328 328 -243
104 52 147 159 111 278 -18 61 -82 122 -147 141 -64 19 -82 19 -138 2z"/>
<path d="M3768 3040 c-60 -15 -115 -56 -144 -106 -40 -68 -40 -160 -1 -226 78
-134 252 -159 361 -54 86 84 87 234 3 324 -50 54 -144 80 -219 62z"/>
<path d="M2535 3544 c-38 -19 -162 -79 -274 -134 -225 -109 -225 -110 -92
-124 49 -6 67 -4 80 7 13 13 315 207 377 243 16 10 17 13 5 28 -17 20 -13 21
-96 -20z"/>
<path d="M2880 2640 c0 -6 33 -10 80 -10 47 0 80 4 80 10 0 6 -33 10 -80 10
-47 0 -80 -4 -80 -10z"/>
<path d="M2834 2602 c-140 -49 -228 -144 -285 -311 -26 -75 -24 -81 13 -30 65
91 142 142 244 164 38 8 80 14 94 14 20 0 17 -3 -17 -17 -86 -35 -131 -104
-113 -170 34 -130 240 -170 445 -87 32 13 -44 -63 -90 -91 -65 -38 -120 -53
-248 -69 -66 -8 -126 -20 -134 -27 -43 -36 -36 -93 19 -148 37 -36 38 -40 18
-40 -86 0 -172 66 -225 172 -33 66 -35 77 -35 164 0 52 -3 94 -7 94 -5 0 -27
-22 -51 -50 -41 -48 -42 -51 -27 -73 13 -20 15 -51 13 -168 -3 -132 -5 -144
-22 -147 -10 -2 -22 2 -27 10 -5 7 -9 93 -9 191 0 108 -4 177 -10 177 -5 0
-16 -13 -24 -29 -9 -16 -27 -38 -42 -48 l-26 -19 21 -35 c13 -22 21 -51 21
-81 l0 -48 -45 0 -45 0 0 100 c0 105 -7 120 -37 73 -9 -16 -27 -37 -40 -48
l-23 -20 21 -43 c27 -54 19 -64 -52 -60 l-54 3 -5 238 c-5 236 -5 239 -29 258
-38 31 -73 23 -96 -22 -20 -38 -19 -46 4 -25 11 10 28 16 38 14 17 -3 18 -20
21 -236 l2 -233 -47 3 -48 3 -2 135 c-1 86 -5 136 -12 138 -6 2 -11 -1 -11 -6
0 -6 -16 -28 -36 -49 -36 -37 -36 -39 -20 -66 10 -18 16 -52 16 -93 l0 -65
-52 3 -53 3 -5 101 c-6 125 -18 144 -91 144 -55 0 -82 -25 -93 -85 l-7 -35
-124 0 c-69 0 -125 2 -125 5 0 2 10 14 22 25 l22 21 -25 22 c-14 12 -33 34
-43 50 -29 47 -36 32 -36 -80 l0 -108 190 3 189 3 3 57 c2 46 6 57 22 60 28 6
36 -15 36 -105 l0 -83 -220 0 -220 0 0 -105 c0 -58 4 -105 9 -105 5 0 20 15
33 33 12 17 32 40 43 49 12 11 16 21 10 25 -5 5 -16 16 -24 26 -13 16 13 17
513 17 l526 0 0 -27 c0 -40 35 -93 62 -95 49 -3 74 4 97 27 21 21 25 36 30
117 6 88 7 90 14 46 9 -53 65 -169 100 -209 48 -54 130 -109 185 -125 66 -20
217 -15 272 8 l35 15 -68 13 c-110 20 -154 74 -127 155 24 71 89 83 225 39
109 -35 171 -40 231 -20 27 9 60 25 73 35 l24 18 -39 7 c-105 20 -158 93 -139
192 10 56 87 128 154 144 69 16 188 8 265 -19 33 -12 61 -19 64 -16 7 7 -55
81 -100 120 -90 76 -201 93 -411 60 -133 -21 -160 -14 -191 48 -16 33 -17 45
-7 78 14 48 49 68 134 78 l62 7 -50 26 c-27 14 -74 33 -104 42 -74 22 -220 21
-287 -2z m169 1 c-24 -2 -62 -2 -85 0 -24 2 -5 4 42 4 47 0 66 -2 43 -4z"/>
<path d="M3896 2405 c-30 -31 -10 -75 34 -75 37 0 53 27 37 61 -15 29 -49 36
-71 14z"/>
<path d="M1802 2298 c-17 -17 -15 -65 4 -72 31 -12 55 -6 65 18 22 47 -33 90
-69 54z"/>
<path d="M3832 2298 c-28 -28 -7 -78 33 -78 27 0 45 18 45 45 0 27 -18 45 -45
45 -12 0 -26 -5 -33 -12z"/>
<path d="M3950 2291 c-14 -27 -13 -37 6 -55 40 -40 101 3 75 53 -15 28 -66 29
-81 2z"/>
<path d="M4062 2173 c-43 -48 -43 -48 -27 -78 13 -24 15 -57 13 -170 -3 -128
-5 -140 -22 -143 -10 -2 -22 2 -27 10 -5 7 -9 93 -9 191 0 97 -4 177 -9 177
-5 0 -16 -12 -26 -27 -9 -16 -28 -37 -41 -48 l-24 -21 21 -41 c13 -26 19 -56
17 -80 -3 -37 -4 -38 -45 -41 l-43 -3 0 100 c0 59 -4 101 -10 101 -5 0 -18
-12 -27 -27 -10 -16 -29 -37 -42 -49 -24 -20 -24 -21 -5 -49 26 -41 27 -216 1
-242 -27 -27 -230 -26 -271 1 -28 18 -29 18 -50 -6 -11 -14 -33 -32 -48 -42
-16 -9 -28 -21 -28 -26 0 -6 72 -10 188 -10 158 0 192 3 222 18 43 21 70 72
70 130 l0 42 45 0 c42 0 45 -2 45 -27 0 -40 35 -93 62 -95 49 -3 74 4 98 28
25 24 25 25 28 249 2 124 0 225 -5 225 -4 0 -28 -21 -51 -47z"/>
<path d="M1110 2144 c-8 -14 -27 -36 -42 -49 -27 -23 -27 -23 -7 -40 17 -16
19 -32 19 -147 0 -71 -5 -150 -11 -175 -12 -44 -67 -114 -99 -125 -28 -10 -1
-20 35 -14 50 10 109 70 123 127 13 54 17 442 5 446 -5 2 -16 -8 -23 -23z"/>
<path d="M4410 2140 c0 -5 -33 -26 -72 -46 -115 -57 -135 -83 -145 -189 l-6
-65 98 0 98 0 -7 -56 c-10 -87 -66 -174 -112 -174 -8 0 -14 -5 -14 -11 0 -18
75 -4 110 21 17 12 40 40 53 63 20 39 22 57 25 255 3 187 2 212 -12 212 -9 0
-16 -4 -16 -10z m-30 -170 l0 -70 -60 0 c-59 0 -60 0 -60 28 0 34 23 68 64 93
51 31 56 27 56 -51z"/>
</g>
</svg>
